# xmcd CD database file
#
# Track frame offsets:
#	150
#	21900
#	40800
#	60375
#	79500
#	99675
#	115050
#	134325
#	159525
#	179775
#	208275
#	231525
#
# Disc length: 3255 seconds
#
# Revision: 3
# Processed by: cddbd v1.5.2PL0 Copyright (c) Steve Scherf et al.
# Submitted via: CDex 1.81
#
DISCID=a80cb50c
DTITLE=Oscar Klein - Oscar Klein's Jazz Show
DYEAR=1994
DGENRE=Jazz
TTITLE0=You Are My Sunshine
TTITLE1=Blues For Peter Schilperoort
TTITLE2=O Sole Mio
TTITLE3=A Tribute To Wild Bill
TTITLE4=Bratislava Fantasy
TTITLE5=To My Mother
TTITLE6=Bye Bye Blackbird
TTITLE7=Me And My Guitar
TTITLE8=The Roman Swing Of Mrs. Stone
TTITLE9=Don't Get Around Much Anymore
TTITLE10=The Sheik Of Araby
TTITLE11=The New Harmonica Shuffle
EXTD=Featuring Romano Mussolini on piano YEAR: 1994
EXTT0=
EXTT1=
EXTT2=
EXTT3=
EXTT4=
EXTT5=
EXTT6=
EXTT7=
EXTT8=
EXTT9=
EXTT10=
EXTT11=
PLAYORDER=
